<?xml version="1.0" encoding="UTF-8"?>
<svg id="Layer_2" data-name="Layer 2" xmlns="http://www.w3.org/2000/svg" viewBox="0 0 98.86 98.86">
  <defs>
    <style>
      .cls-1 {
        fill: #ab9354;
      }
    </style>
  </defs>
  <g id="Layer_3" data-name="Layer 3">
    <path class="cls-1" d="M78.26,0H20.6C9.22,0,0,9.22,0,20.6v57.67c0,11.37,9.22,20.6,20.6,20.6h57.67c11.38,0,20.6-9.22,20.6-20.6V20.6c0-11.37-9.22-20.6-20.6-20.6Zm-28.82,70.79c-6.15,0-12.29,0-18.44,0-2.84,0-5.12-1.1-6.8-3.39-1.05-1.44-1.48-3.08-1.48-4.85,0-2.6,0-5.2,0-7.8,0-5.95,.01-11.9,0-17.85,0-1.58,.16-3.11,.92-4.51,1.29-2.37,3.27-3.79,5.95-4.23,.47-.08,.94-.09,1.41-.09,12.31,0,24.61,0,36.92,0,3.65,0,6.5,1.97,7.79,5.38,.32,.85,.45,1.75,.45,2.66,0,8.84,0,17.68,0,26.52,0,2.52-.93,4.63-2.85,6.27-1.55,1.33-3.38,1.91-5.42,1.9-3.23-.02-6.45,0-9.68,0-2.92,0-5.84,0-8.76,0Zm-21.36-29.6c0,.08,0,.16,0,.24,0,7.09,0,14.18,0,21.27,0,1.62,1.14,2.73,2.77,2.73,12.36,0,24.72-.02,37.09,.02,1.43,0,2.86-1.06,2.85-2.84-.03-7.02-.01-14.04-.02-21.06,0-.11,.07-.27-.07-.33-.11-.05-.2,.08-.29,.13-1.08,.71-2.15,1.43-3.23,2.15-5.34,3.56-10.68,7.12-16.02,10.68-1.23,.82-2.21,.83-3.44,.02-6.41-4.27-12.81-8.53-19.22-12.8-.12-.08-.23-.2-.43-.2Zm42.35-6.41c-.05-.07-.1-.17-.16-.26-.58-.76-1.36-1.11-2.31-1.11-7.01,0-14.02,0-21.03,0-5.33,0-10.65,0-15.98,0-.93,0-1.7,.32-2.31,1.04-.28,.33-.2,.47,.13,.68,1.91,1.25,3.8,2.51,5.7,3.78,4.88,3.25,9.75,6.51,14.63,9.77,.24,.16,.42,.18,.67,0,1.4-.95,2.81-1.89,4.22-2.83,3.26-2.17,6.52-4.34,9.78-6.51,2.13-1.42,4.25-2.84,6.38-4.26,.11-.07,.27-.1,.29-.3Z"/>
  </g>
</svg>