<?xml version="1.0" encoding="UTF-8"?>
<svg id="Layer_2" data-name="Layer 2" xmlns="http://www.w3.org/2000/svg" viewBox="0 0 98.68 98.68">
  <defs>
    <style>
      .cls-1 {
        fill: #ab9354;
      }
    </style>
  </defs>
  <g id="Layer_2-2" data-name="Layer 2">
    <path class="cls-1" d="M78.12,0H20.56C9.21,0,0,9.21,0,20.56v57.56c0,11.35,9.21,20.56,20.56,20.56h57.56c11.36,0,20.56-9.21,20.56-20.56V20.56c0-11.35-9.2-20.56-20.56-20.56ZM20.18,65.74H12.16v-30.93h8.02v30.93Zm27.46,0h-6.97v-20.88l-2.82,20.88h-4.98l-2.94-20.43-.04,20.43h-6.99v-30.93h10.36c.35,2.19,.67,4.39,.97,6.62l1.12,7.84,1.87-14.46h10.42v30.93Zm20.92-9.14c0,2.74-.18,4.59-.45,5.56-.24,.93-.71,1.67-1.36,2.19-.63,.55-1.42,.93-2.4,1.12-.95,.18-2.4,.32-4.27,.32l-.02-.02h-9.69v-30.93h6.01c3.84,0,6.09,.2,7.43,.53,1.36,.37,2.42,.95,3.13,1.77,.69,.75,1.14,1.69,1.32,2.7,.22,.98,.32,2.95,.32,5.89v10.87Zm20.78,1.97c0,1.89-.2,3.21-.37,4.18-.26,.95-.83,1.69-1.71,2.38-.95,.71-2.01,1.02-3.29,1.02-.93,0-2.11-.26-2.86-.57-.79-.39-1.5-1-2.17-1.81l-.47,1.99h-7.23v-30.95l-.08-.02h7.56v10.09c.63-.73,1.32-1.3,2.13-1.67,.85-.33,1.97-.55,2.9-.55s1.89,.16,2.78,.49c.73,.3,1.34,.77,1.83,1.38,.37,.53,.63,1.12,.75,1.77,.12,.57,.18,1.81,.18,3.64v8.63h.06Zm-29.38-17.94h0c-.32-.18-.95-.28-1.75-.28v20.23c1.12,0,1.83-.26,2.11-.71,.26-.43,.39-1.69,.39-3.7v-12.06c0-1.38-.02-2.27-.14-2.64-.1-.41-.28-.69-.61-.85h0Zm20.07,6.08c-.49,0-.81,.18-.93,.51-.14,.33-.24,1.22-.24,2.62v8.18c0,1.36,.12,2.25,.24,2.62,.16,.35,.53,.57,.95,.55,.49,0,1.12-.2,1.26-.59,.12-.41,.18-1.34,.18-2.82l.14-.02v-7.94c0-1.26-.06-2.13-.24-2.52-.22-.43-.83-.59-1.36-.59h0Z"/>
  </g>
</svg>