<?xml version="1.0" encoding="UTF-8"?>
<svg id="Layer_2" data-name="Layer 2" xmlns="http://www.w3.org/2000/svg" viewBox="0 0 94.06 94.06">
  <defs>
    <style>
      .cls-1 {
        fill: #ab9354;
      }
    </style>
  </defs>
  <g id="Layer_1-2" data-name="Layer 1">
    <path class="cls-1" d="M74.46,0H19.6C8.77,0,0,8.77,0,19.6v54.87c0,10.82,8.77,19.6,19.6,19.6h54.87c10.82,0,19.6-8.77,19.6-19.6V19.6c0-10.82-8.77-19.6-19.6-19.6ZM31.87,68.8h-9.4V34.33h9.4v34.47Zm-4.7-38.44c-3.03,0-5.48-2.48-5.48-5.53s2.46-5.53,5.48-5.53,5.48,2.48,5.48,5.53-2.45,5.53-5.48,5.53Zm42.3,38.44h-9.4v-17.56c0-10.55-12.53-9.76-12.53,0v17.56h-9.4V34.33h9.4v5.53c4.37-8.1,21.94-8.7,21.94,7.76v21.18Z"/>
  </g>
</svg>